<svg id="Layer_1" data-name="Layer 1" xmlns="http://www.w3.org/2000/svg" viewBox="0 0 280.16 189.79"><defs><style>.cls-1{fill:none;}.cls-1,.cls-2{fill-rule:evenodd;}</style></defs><title>background</title><path class="cls-1" d="M-.16,140.23v-7.18a.42.42,0,0,0,.34-.17c.07-.08.18-.16.09-.26s-.2,0-.29,0l-.14.07V101.8l.21.12c.14.08.31.23.42,0s.12-.45-.15-.56a1.93,1.93,0,0,0-.48-.08V.21H35.71c0,.36-.56.62-.19,1.09.27-.33.2-.75.36-1.09H280V190H-.16V140.56l.16,0c.1,0,.24,0,.24-.16s-.15-.11-.24-.13Zm171-19.15a.27.27,0,0,0-.3,0c-.12.09-.19.23-.07.33s.28,0,.35-.13,0-.15,0-.24l.08-.14c.06-.08.16-.16,0-.26a.08.08,0,0,0-.07,0c-.13.07-.1.18-.08.28A.94.94,0,0,0,170.8,121.08Zm49,33.77c-.23.08-.33-.39-.62-.17.17.32.41.19.64.16-.25.45,0,.73.34,1.07C220.42,155.38,220,155.16,219.85,154.85Zm-85.66-6c.21.06.45.16.58-.09s.14-.43-.13-.56c-.26.14-.32.42-.45.65a.35.35,0,0,1,.06.31c0,.08,0,.17.11.16a.13.13,0,0,0,.07,0c.08-.07.06-.14,0-.21Zm44.14-39v0c.1.2,0,.61.29.58s.61-.15.58-.57a1,1,0,0,1,.19-.77.34.34,0,0,0,0-.45c-.16-.11-.34-.05-.52.08A1.46,1.46,0,0,0,178.33,109.78Zm-30.6,72.55c0-.35-.1-.53-.35-.58a.84.84,0,0,0-.94.47,7.94,7.94,0,0,0-.11,1,.41.41,0,0,0,.36.47c.32.08.64.21.92-.1s.35-.41.13-.65S147.69,182.52,147.73,182.33ZM80.53,86.11c0,.06,0,.11,0,.16,0,.35.12.63.48.64s.28-.34.37-.54a.37.37,0,0,0,0-.31c-.14-.24,0-.72-.43-.7S80.53,85.78,80.53,86.11Zm5,78.45c.07,0,.2.09.27,0a2.18,2.18,0,0,0,.47-1,.16.16,0,0,0-.13-.19c-.09,0-.14,0-.2.09a.93.93,0,0,1-.79.34.31.31,0,0,0-.34.29c0,.18.16.29.29.36A1.33,1.33,0,0,0,85.55,164.56Zm-23-129.49a2.9,2.9,0,0,0-.08-.41.22.22,0,0,0-.3-.18.21.21,0,0,0-.16.26,10,10,0,0,1,.25,1.53c0,.13,0,.3.23.29a.31.31,0,0,0,.32-.31.66.66,0,0,0-.18-.61A.38.38,0,0,1,62.53,35.07Zm45.1,17.85.12-.21-1.7-1.14a1.71,1.71,0,0,0-.11.14A2.89,2.89,0,0,0,107.63,52.92Zm31.05-10.55a3.57,3.57,0,0,0-.72-.1.28.28,0,0,0-.3.32c0,.15.06.32.26.38C138.27,43.06,138.47,42.92,138.68,42.37Zm47.94,129.2h-.82c-.22.07-.34.17-.15.4C186,172.41,186.25,172.33,186.62,171.57ZM271.25,60.32a1.15,1.15,0,0,0,.29.86.28.28,0,0,0,.36.09c.13-.06.1-.17.08-.28C271.94,60.58,271.71,60.38,271.25,60.32ZM125.46,69.74c0-.25-.11-.5-.39-.56a.33.33,0,0,0-.4.31.56.56,0,0,0,.44.52A.29.29,0,0,0,125.46,69.74ZM249.71,18.05a2.94,2.94,0,0,0,1.68-.24c.13-.06.25-.17.15-.31a.27.27,0,0,0-.38,0A2.74,2.74,0,0,1,249.71,18.05ZM122.29,43.12c0-.22,0-.48-.29-.49a.4.4,0,0,0-.43.41.47.47,0,0,0,.45.5C122.29,43.57,122.25,43.29,122.29,43.12ZM186.05,90.2a1.13,1.13,0,0,0,.3-.86.29.29,0,0,0-.33-.29c-.18,0-.22.15-.19.29S185.76,89.89,186.05,90.2Zm64.64,1.59c-.27.26-.55.47-.35.85a.3.3,0,0,0,.43.06C251.09,92.44,251,92.14,250.69,91.79ZM168.75,9.88c.4,0,.63-.19.62-.5a.21.21,0,0,0-.19-.23c-.11,0-.68.47-.66.56A.17.17,0,0,0,168.75,9.88ZM109.14,63.64a.47.47,0,0,0-.49-.43.23.23,0,0,0-.24.27c0,.23.08.53.37.55A.35.35,0,0,0,109.14,63.64Zm64,6.61c.27,0,.52.23.82.13.12,0,.28-.08.27-.25a.23.23,0,0,0-.31-.18C173.68,70,173.39,70,173.15,70.25ZM37.76,51.48a.3.3,0,0,0-.32-.29c-.31,0-.35.21-.36.43s.13.27.3.29C37.71,51.94,37.69,51.68,37.76,51.48ZM273.24,38.66c-.14-.1-.28-.27-.34-.25a1.12,1.12,0,0,0-.63.58.17.17,0,0,0,.08.21.24.24,0,0,0,.3,0ZM89.39,41.42c0,.56-.09,1.12-.11,1.68A1.49,1.49,0,0,0,89.39,41.42ZM13.76,25.57c.34,0,.33-.22.29-.42s0-.32-.19-.25-.42,0-.37.31S13.56,25.59,13.76,25.57ZM50.6,121.1c-.24,0-.31.1-.31.29s.09.4.34.36.29-.25.3-.43S50.73,121.13,50.6,121.1ZM2.27,75.71c0-.32-.23-.41-.48-.47s-.25,0-.24.14.09.5.41.51C2.09,75.9,2.24,75.89,2.27,75.71ZM97,100.24c.81.24.81.24.71-.53C97.56,100.07,97.27,100.12,97,100.24ZM248.5,47c.11-.06.31,0,.29-.21s-.1-.46-.35-.46-.3.22-.29.41S248.32,47,248.5,47Zm7.42,59.17.16-.08-.42-.85a.2.2,0,0,0-.27-.11c-.14,0-.1.16-.09.27C255.33,105.85,255.74,105.92,255.92,106.21ZM228.56,38.77a1,1,0,0,0-.14,1C229,39.47,228.84,39.17,228.56,38.77ZM36.34,69.05c-.13,0-.24,0-.24.17s-.13.57.21.7c.12,0,.24-.1.26-.25S36.6,69.18,36.34,69.05Zm96,104.83c.2,0,.36,0,.52,0s.44.09.38-.23a.32.32,0,0,0-.45-.22C132.69,173.55,132.45,173.54,132.39,173.88Zm33.69-124.1c0,.19-.13.42.17.44s.24-.19.23-.34,0-.5-.23-.52S166.12,49.64,166.08,49.78ZM97.64,96.6c0,.19,0,.39.24.36a.37.37,0,0,0,.27-.44c0-.11,0-.31-.19-.29A.36.36,0,0,0,97.64,96.6Zm65.17,64.78c-.08.15-.17.26-.14.41s-.06.41.19.49a.26.26,0,0,0,.21-.08c.2-.17,0-.29,0-.43S163.05,161.49,162.81,161.38ZM270.54,106a1,1,0,0,0,.85,0C271,105.78,271,105.78,270.54,106Zm-111-19.85a.4.4,0,0,0-.41-.32c-.15,0-.13.14-.14.24s0,.33.26.32A.28.28,0,0,0,159.54,86.14Zm97.9-61c0-.38.39-.64.37-1.12A1.24,1.24,0,0,0,257.44,25.1ZM14.88,65.16c0,.13-.17.41.18.42s.25-.2.29-.35-.11-.31-.27-.34S14.84,65,14.88,65.16ZM96.56,91.77c0-.13-.09-.23-.2-.22s-.24.26-.28.43a.12.12,0,0,0,.14.15A.38.38,0,0,0,96.56,91.77Zm22.91,80.29a1.68,1.68,0,0,0-.18-1.26A3,3,0,0,0,119.47,172.06ZM184.94,16.35c-.28.16-.26.37-.1.61,0,.07.15.11.2,0a.52.52,0,0,0,0-.54A.44.44,0,0,0,184.94,16.35ZM115.65,161c-.23-.16-.45-.32-.73-.15a.16.16,0,0,0,0,.22c.22.26.45,0,.68,0C115.6,161.09,115.62,161.06,115.65,161ZM102.4,107c.76.14.78.12.61-.5C102.88,106.94,102.88,106.94,102.4,107Zm153.5-6.2c-.24,0-.38-.07-.39.12s.11.19.22.21a1.35,1.35,0,0,0,.4,0c.06,0,.12-.11.14-.18a.15.15,0,0,0-.14-.16A1,1,0,0,0,255.9,100.78ZM34.5,73.62a1.47,1.47,0,0,0-.24,1.08A.91.91,0,0,0,34.5,73.62Zm119.86,62.72c-.27-.34-.27-.34-.56,0A1.06,1.06,0,0,0,154.36,136.34ZM133.93,5.93a.24.24,0,0,0,.29-.14c.09-.23-.14-.17-.23-.21s-.24,0-.27.08S133.82,5.89,133.93,5.93ZM49.33,51.84s0-.16-.12-.15-.4,0-.39.28.14.22.29.21S49.35,52.09,49.33,51.84Zm210.5-13.37c.08-.1.28-.14.31-.35a.47.47,0,0,0-.2-.06c-.18,0-.32.06-.32.27S259.67,38.47,259.83,38.47ZM149.08,139.75c0-.12,0-.24-.17-.22s-.21.2-.24.35,0,.24.11.25S149,139.91,149.08,139.75Zm33.57-101a.67.67,0,0,0,0,.66s.12,0,.14,0,0-.37,0-.55C182.77,38.86,182.73,38.85,182.65,38.79ZM118.41,143.23a3.75,3.75,0,0,0,.52-.48.23.23,0,0,0-.11-.34c-.19-.09-.24.05-.28.19S118.48,142.92,118.41,143.23Zm39.93-4.84c.13-.11.4-.15.35-.44,0-.12-.15-.16-.25-.15a.38.38,0,0,0-.34.39C158.08,138.32,158.17,138.39,158.34,138.39ZM18.63,156.09c.46,0,.57-.27.67-.61C18.93,155.54,18.78,155.76,18.63,156.09ZM180.25,2.17a2,2,0,0,0,.74.75A1.59,1.59,0,0,0,180.25,2.17Zm-143.49,1c.32-.08.33-.3.24-.56a.14.14,0,0,0-.19-.08c-.19.12-.14.33-.14.51S36.72,3.07,36.76,3.12ZM242,68.55c0-.15-.09-.18-.21-.16s-.27.07-.21.26.09.2.22.19S242,68.69,242,68.55ZM57.23,102.38a.56.56,0,0,0-.2.65s.1.08.12.07c.26-.17.16-.43.15-.65C57.3,102.42,57.27,102.41,57.23,102.38ZM73,16.94a.49.49,0,0,0-.68-.15c-.07.05-.12.15,0,.21s.4.09.61.07C72.91,17.07,72.94,17,73,16.94Zm146.08-1.42c0-.16,0-.28-.2-.28s-.21.14-.25.27.06.22.2.24S219.07,15.67,219.08,15.52Zm51.77,17.84c-.27-.16-.45-.32-.63-.06a.21.21,0,0,0,0,.29C270.53,33.76,270.61,33.44,270.85,33.36ZM30.11,37.43c0-.11,0-.25-.12-.25s-.23.19-.24.35,0,.31.2.29S30.09,37.58,30.11,37.43ZM78.34,23,78.17,23a.85.85,0,0,0,0,.85C78.21,23.56,78.27,23.3,78.34,23ZM259.56,63.21c0-.12-.1-.24-.21-.23a.28.28,0,0,0-.21.31c0,.14.13.17.25.15S259.57,63.34,259.56,63.21ZM241.71,50.47a.17.17,0,0,0-.17-.16c-.21,0-.27.17-.27.35s0,.23.19.19S241.68,50.62,241.71,50.47Zm17.36,9.62c0-.14-.08-.27-.24-.29a.3.3,0,0,0-.3.22.16.16,0,0,0,.15.23C258.82,60.26,259,60.3,259.07,60.09ZM113,125.86a.91.91,0,0,0,.41.79A1.67,1.67,0,0,0,113,125.86ZM67.75,42c0,.08-.06.1,0,.12s0,.34.23.4c0,0,.13,0,.14-.06s-.06-.24-.15-.34A.76.76,0,0,0,67.75,42Zm51-20.95c.11-.35.29-.47.27-.68a.93.93,0,0,0-.07-.19C118.78,20.33,118.79,20.57,118.79,21Zm59.59-2.29a.26.26,0,0,0-.19-.31c-.17,0-.21.15-.22.26a.24.24,0,0,0,.22.28C178.31,19,178.35,18.83,178.38,18.72Zm-146.8,109c.31,0,.49-.17.44-.51ZM75.81,167c-.22.4-.3.62,0,.93ZM124.2,51.46c-.43-.12-.69-.25-1.14,0A1.66,1.66,0,0,0,124.2,51.46ZM24.39,106.18c0-.13-.11-.16-.23-.14s-.16,0-.16.14a.19.19,0,0,0,.2.21C24.31,106.39,24.38,106.31,24.39,106.18Zm80.83-98c-.1,0-.18,0-.18.12a.2.2,0,0,0,.27.21c.07,0,.19-.08.19-.11S105.31,8.21,105.22,8.14Zm30,139.24a.23.23,0,0,0-.19-.22.2.2,0,0,0-.27.2c0,.09.11.18.22.19A.22.22,0,0,0,135.24,147.38Zm113.4-57c0-.1,0-.21,0-.31a.13.13,0,0,0-.12-.09c-.17,0-.12.15-.07.25S248.51,90.41,248.64,90.4ZM5.41,147.9c.1,0,.17-.07.16-.15s-.14-.15-.25-.15-.17,0-.14.13A.23.23,0,0,0,5.41,147.9Zm132-50.77c0-.12,0-.22-.17-.23a.2.2,0,0,0-.18.22c0,.12,0,.21.17.21A.18.18,0,0,0,137.41,97.13ZM93.74,138.92c0-.06.07-.08.07-.1a.69.69,0,0,0,0-.47s-.12,0-.13,0,0,.31,0,.47ZM133.3,31.85a.17.17,0,0,0-.16.16c0,.18.11.22.25.22s.13-.09.12-.17A.23.23,0,0,0,133.3,31.85Zm-.64,123.29c.13.09.22.26.4.22,0,0,.06-.11.05-.13S132.84,155.1,132.66,155.14ZM261,49.5c.17,0,.37.26.54,0A.5.5,0,0,0,261,49.5ZM130.72,57.84c.16,0,.13-.13.14-.22s0-.25-.08-.29a.18.18,0,0,0-.22.17A.3.3,0,0,0,130.72,57.84Zm-23.63,68c-.1,0-.23,0-.22.17s.14.13.24.15.24,0,.25-.13S107.21,125.89,107.09,125.87Zm143.63,9.9c-.1,0-.13.08-.15.15a.25.25,0,0,0,.17.32c.1,0,.16,0,.16-.12A.5.5,0,0,0,250.72,135.77ZM32.2,129.4c0-.14-.1-.19-.22-.2s-.24,0-.24.16.11.17.23.18S32.2,129.56,32.2,129.4Zm237.89,32.22c0-.14,0-.26-.11-.29s-.2.06-.22.18,0,.29.16.31S270.06,161.69,270.09,161.62ZM169.67,68.51a.44.44,0,0,0,.19-.36.14.14,0,0,0-.18-.11c-.16,0-.21.14-.15.29A.79.79,0,0,0,169.67,68.51ZM88.17,55.06a.2.2,0,0,0-.23-.18.19.19,0,0,0-.2.2.21.21,0,0,0,.26.21A.21.21,0,0,0,88.17,55.06Zm25,129.75a.37.37,0,0,0,0,.5c.06.06.16,0,.19-.06S113.36,184.91,113.16,184.81Zm-3.93-69.35s-.08,0-.08.1,0,.22.1.27.09,0,.1-.09A.29.29,0,0,0,109.23,115.46ZM195,73c-.05,0,0-.21-.19-.18s-.14.15-.13.26,0,.23.19.2S195,73.15,195,73ZM18.06,13.63a.38.38,0,0,0,.27-.28c0-.09-.1-.11-.17-.11a.28.28,0,0,0-.25.27C17.9,13.6,18,13.64,18.06,13.63ZM119.37,127.91c-.27.08-.28.28-.26.6C119.26,128.26,119.39,128.12,119.37,127.91ZM232.59.93s0,.12.08.12c.19,0,.18-.13.23-.24s0-.12-.07-.12S232.66.84,232.59.93Zm22.46,158c0-.11-.08-.2-.2-.21a.19.19,0,0,0-.23.16.17.17,0,0,0,.12.24C254.91,159.12,255,159,255.05,158.88Zm-44.79.19a.26.26,0,0,0-.15.33c0,.08.07.16.17.12s.16-.19.13-.33S210.38,159,210.26,159.07Zm31,.33c0-.14,0-.28-.21-.29,0,0-.06.14-.06.21s0,.24.15.25S241.27,159.49,241.27,159.4Zm-221.37,2c0-.06,0-.12,0-.16-.08-.2-.34-.29-.35-.14S19.71,161.37,19.9,161.38Zm44.47,13.9c0-.12,0-.22-.12-.26a.13.13,0,0,0-.18.09.19.19,0,0,0,.12.26C64.27,175.41,64.33,175.35,64.37,175.28Zm130.09,11c.11,0,.2-.09.18-.22s-.11-.1-.19-.08-.21.08-.18.21S194.38,186.3,194.46,186.29ZM29.83,188.38c-.11.11-.28.18-.27.37,0,0,.09.08.12.06C29.87,188.75,29.9,188.59,29.83,188.38ZM219.09,17.63c-.1-.12-.11-.32-.29-.35a.34.34,0,0,0-.08.2.23.23,0,0,0,.22.27C219,17.76,219.11,17.75,219.09,17.63ZM142.81,25a.45.45,0,0,0,.49.19.13.13,0,0,0,.12-.17A.72.72,0,0,0,142.81,25ZM153,28.65c-.12.17-.36.2-.25.45a.14.14,0,0,0,.14,0C153.09,29,153.11,28.88,153,28.65ZM73.43,21.76c.12-.05.24-.12.2-.28s-.1,0-.14,0-.25.11-.2.28C73.29,21.75,73.38,21.75,73.43,21.76ZM231.58,43.42c0-.1,0-.21-.17-.21a.2.2,0,0,0-.22.18.19.19,0,0,0,.17.23C231.48,43.63,231.54,43.54,231.58,43.42Zm-45.54,5c.13,0,.12-.14.1-.25s-.09-.2-.22-.18-.13.14-.11.25A.21.21,0,0,0,186,48.46ZM82.13,57.17c.29.4.47.43.79.25ZM125.91,67.6c-.09,0-.16,0-.17.12s.08.18.2.18.24,0,.21-.13A.24.24,0,0,0,125.91,67.6Zm38.32,52.63c0-.1,0-.17-.14-.17s-.28.13-.29.31.08.13.17.12A.29.29,0,0,0,164.23,120.23Zm87-25.24a.24.24,0,0,0-.19.23c0,.08,0,.17.14.14a.25.25,0,0,0,.19-.22A.13.13,0,0,0,251.26,95ZM72.61,122.9c0-.11,0-.23-.17-.23s-.22.13-.21.28a.18.18,0,0,0,.21.18A.21.21,0,0,0,72.61,122.9Zm179.1,4c.06,0,.15,0,.14,0s0-.28-.19-.34a.16.16,0,0,0-.13.06C251.44,126.77,251.6,126.81,251.71,126.86ZM8.42,128.27a.2.2,0,0,0-.12.24c0,.08,0,.16.13.14s.14-.13.13-.24A.13.13,0,0,0,8.42,128.27Zm-5.6.79a.21.21,0,0,0-.2.2.11.11,0,0,0,.15.12c.06,0,.11-.09.14-.16S2.92,129.08,2.82,129.06Zm156.8,2.63a.86.86,0,0,0-.11-.7A.79.79,0,0,0,159.62,131.69ZM153.38,134a.31.31,0,0,0,.21-.22c0-.14-.05-.2-.16-.22s-.19.09-.2.2A.2.2,0,0,0,153.38,134Zm109.44,1.06a.46.46,0,0,0,.12-.12c.08-.11.25-.32,0-.33S262.79,134.88,262.82,135.07ZM95.87,140c.11,0,.22-.12.21-.28a.21.21,0,0,0-.13,0c-.12,0-.25.08-.21.25S95.82,139.93,95.87,140Zm6,6.44a.14.14,0,0,0-.05-.21.24.24,0,0,0-.35.06c-.06.09,0,.15.06.2A.23.23,0,0,0,101.9,146.39ZM244.07,2.44a.46.46,0,0,0-.06-.62C244,2.05,243.81,2.23,244.07,2.44ZM107.54,3.53c-.14,0-.21,0-.21.12a.14.14,0,0,0,.19.12.72.72,0,0,0,.19-.13ZM258,180.16a1.43,1.43,0,0,0,0,.22c0,.07.07.07.11,0a.66.66,0,0,0,0-.15C258.15,180.16,258.11,180.13,258,180.16Zm-39.17-170s-.11.06-.11.09-.24.27,0,.3S219,10.3,218.86,10.12ZM8.26,11.46a.83.83,0,0,0,.13-.18.12.12,0,0,0-.11-.17c-.12,0-.21,0-.18.17S8.15,11.44,8.26,11.46Zm61,34.93a.25.25,0,0,0-.16-.26c-.1,0-.13,0-.14.13a.19.19,0,0,0,.15.23C69.18,46.52,69.23,46.48,69.23,46.39ZM100.41,182a.16.16,0,0,0,.16-.15c0-.14-.11-.15-.21-.16s-.16,0-.15.14S100.3,182,100.41,182ZM171,14.18c-.05,0-.1-.14-.16-.15s-.13.07-.11.16a.13.13,0,0,0,.17.11S170.93,14.23,171,14.18ZM158,185.14c-.07,0-.14.08-.1.17a.66.66,0,0,0,.15.14c0-.06.1-.12.1-.19A.13.13,0,0,0,158,185.14Zm19.34-108.6c0-.17-.16-.25-.3-.32a.21.21,0,0,0-.08.11.44.44,0,0,0,.3.33A1.18,1.18,0,0,0,177.36,76.54ZM29.05,113.21c.13,0,.24-.1.23-.26a.14.14,0,0,0-.16-.13.27.27,0,0,0-.19.23A.12.12,0,0,0,29.05,113.21ZM73,35.3c0-.23,0-.28-.14-.26a.15.15,0,0,0-.09.1.13.13,0,0,0,.1.18C73,35.33,73,35.26,73,35.3Zm108.52,78.91c-.08,0-.12,0-.11.09s0,.19,0,.22.12,0,.11-.1A.8.8,0,0,0,181.54,114.21ZM150.67,85.68c0-.14,0-.22-.1-.23a.16.16,0,0,0-.17.2c0,.1.07.26.12.26S150.64,85.74,150.67,85.68ZM136.21,72.74a.13.13,0,0,0-.1.18c0,.08.06.18.15.14s.1-.13.1-.2S136.31,72.72,136.21,72.74Zm76.3-38.33a.15.15,0,0,0-.12-.17c-.12-.05-.2,0-.24.13a.16.16,0,0,0,.11.18C212.39,34.59,212.46,34.51,212.51,34.41Zm41.75,112.27c0-.05.08-.11.08-.18a.08.08,0,0,0-.14-.08s0,.14,0,.21S254.19,146.72,254.26,146.68ZM165.82,68.21s-.08-.07-.12-.07-.11,0-.11.08.07.12.14.1S165.79,68.25,165.82,68.21ZM73.57,33.06c-.11,0-.12.09-.11.17a.17.17,0,0,0,.07.14c.1,0,.14,0,.15-.12S73.66,33.09,73.57,33.06ZM154,93c-.1,0-.21,0-.25.15a.11.11,0,0,0,.14.14c.12,0,.28,0,.29-.21S154.12,93,154,93Zm-20.56,30.49c.16,0,.21-.07.23-.15a.13.13,0,0,0-.14-.15.15.15,0,0,0-.15.15C133.42,123.46,133.45,123.52,133.48,123.52Zm-15.6,1a1.34,1.34,0,0,0-.07-.18,1.42,1.42,0,0,0-.07.22s0,.13.05.13S117.87,124.64,117.88,124.56Zm19.23.38c0-.12-.08-.18-.16-.16a.26.26,0,0,0-.18.14c0,.11.06.14.15.13S137.08,125,137.11,124.94Zm137.77.53s0-.15-.1-.18a.1.1,0,0,0-.15.11.45.45,0,0,0,.15.19S274.87,125.57,274.88,125.47ZM199,32c-.06-.09-.12-.19-.24-.16s-.06.13-.05.2a.14.14,0,0,0,.17.12A.12.12,0,0,0,199,32ZM158.88,60.75a.15.15,0,0,0,.16.16.18.18,0,0,0,.15-.17c0-.09,0-.18-.11-.19S158.92,60.66,158.88,60.75ZM18.09,156.69c-.12,0-.15.12-.17.22s0,.17.12.13a.26.26,0,0,0,.13-.17A.12.12,0,0,0,18.09,156.69ZM41.54,91.07a.53.53,0,0,0,.12.14c.09,0,.15,0,.15-.11s0-.22-.15-.22S41.56,91,41.54,91.07Zm9.91,66.48c0-.1-.06-.17-.15-.14a.16.16,0,0,0-.09.12c0,.08,0,.17.1.17S51.44,157.62,51.45,157.55Zm37.15-53c0-.09-.06-.2-.19-.2a.17.17,0,0,0-.15.17.23.23,0,0,0,.21.21C88.56,104.77,88.61,104.71,88.6,104.59ZM204.37,85c.16,0,.24,0,.26-.14a.12.12,0,0,0-.13-.15.22.22,0,0,0-.24.14S204.34,85,204.37,85ZM183.59,89.9c-.09.14-.26.21-.17.41s.13.12.18.06A.35.35,0,0,0,183.59,89.9Zm28.68,71.35c.14,0,.2-.08.19-.16s-.13-.14-.22-.15-.15,0-.14.13A.2.2,0,0,0,212.27,161.25Zm47.63-31.69s.08-.08.09-.12-.05-.11-.08-.11-.15.06-.12.15S259.86,129.54,259.9,129.56Zm-49.72-48.3c0-.11-.06-.15-.14-.16s-.13.07-.15.15,0,.17.06.18S210.14,81.37,210.18,81.26ZM163.8,100.54c.14,0,.19-.08.23-.17a.17.17,0,0,0-.12-.25c-.13,0-.2.06-.24.16S163.7,100.48,163.8,100.54Zm104.25,31.24c-.12,0-.15.06-.15.14s0,.13,0,.15.13,0,.15-.09S268.13,131.82,268.05,131.78ZM135.9,100.49c0-.08-.05-.15-.13-.14a.13.13,0,0,0-.12.07.13.13,0,0,0,.09.18A.12.12,0,0,0,135.9,100.49ZM59.29,189.41a.86.86,0,0,0-.21-.07c-.09,0-.16,0-.12.15a.15.15,0,0,0,.19.09C59.24,189.57,59.29,189.52,59.29,189.41Zm163.2-88.15c0,.06,0,.14,0,.15s.12-.07.13-.14.05-.17,0-.18S222.53,101.21,222.49,101.26ZM25.07,135.79c0-.06,0-.17-.13-.15a.29.29,0,0,0-.22.29c0,.1.06.14.15.14S25.08,136,25.07,135.79Zm208,30.25c.09,0,.07-.13.05-.21a.15.15,0,0,0-.16-.14s-.08.07-.08.11A.3.3,0,0,0,233.07,166ZM2.75,5.24l-.11.09c.06.06.1.15.16.17s.16,0,.13-.13A.19.19,0,0,0,2.75,5.24ZM203.9,12c.09,0,.16-.06.16-.15a.16.16,0,0,0-.15-.16.12.12,0,0,0-.14.15A.15.15,0,0,0,203.9,12ZM251,13.24s-.09.07-.09.09,0,.17.11.19.1-.06.1-.12A.13.13,0,0,0,251,13.24Zm-96.76,98.49c0-.1-.07-.15-.16-.12s-.09.07-.08.11a.13.13,0,0,0,.16.13S154.21,111.77,154.23,111.73Zm-148,.9s.11,0,.13,0a.14.14,0,0,0,0-.14c-.08-.06-.14,0-.16.06S6.25,112.58,6.27,112.63ZM266,112.39c-.11,0-.15.08-.13.16a.22.22,0,0,0,.2.21.13.13,0,0,0,.13-.16A.28.28,0,0,0,266,112.39Zm5.3,1.25a.16.16,0,0,0-.1-.18c-.11,0-.15,0-.17.12a.16.16,0,0,0,.1.19C271.23,113.79,271.29,113.73,271.31,113.64ZM3.71,114.91a1.22,1.22,0,0,0,.12-.19c0-.06,0-.14-.05-.12a.64.64,0,0,0-.13.18C3.61,114.84,3.63,114.88,3.71,114.91Zm217.91,1.5c.09,0,.16-.06.15-.16s-.1-.06-.14-.06-.17,0-.14.15S221.57,116.39,221.62,116.41ZM261.35,95c0-.13-.05-.17-.13-.17a.14.14,0,0,0-.13.15c0,.08,0,.16.11.14S261.31,95,261.35,95ZM207.47,62.6a.13.13,0,0,0-.13.16.13.13,0,0,0,.16.13s.07-.08.08-.12S207.57,62.61,207.47,62.6Zm67.91,63.13a.15.15,0,0,0-.21,0s-.1.07-.1.1.07.12.16.09S275.39,125.83,275.38,125.73ZM75.27,57.86c0,.09,0,.16,0,.23s.06.07.09.1a1.52,1.52,0,0,0,0-.21S75.31,57.91,75.27,57.86ZM63.34,56.53a1.25,1.25,0,0,0-.08.22c0,.11,0,.33.13.27S63.45,56.74,63.34,56.53ZM256.79,54a.19.19,0,0,0-.2.2s.08.08.11.08a.19.19,0,0,0,.19-.2S256.82,54.05,256.79,54Zm-218,45.71,0-.11a.17.17,0,0,0,0,.07s0,0,0,.07Zm166-46.68a.15.15,0,0,0,.07-.2c0-.06-.07-.07-.12,0a.19.19,0,0,0-.05.14S204.78,53,204.82,53.05ZM12.25,129.67a.16.16,0,0,0-.21-.08c-.07,0-.08.06,0,.12s.11.13.19.09S12.23,129.71,12.25,129.67Zm137-39.93c0,.25-.21.3-.16.49,0,0,.11.06.14,0S149.35,90,149.21,89.74ZM183,52.45a.12.12,0,0,0-.15-.11s-.12,0-.13.06a.12.12,0,0,0,.11.16A.15.15,0,0,0,183,52.45Zm94.33-6.05a.89.89,0,0,0-.22,0,.07.07,0,0,0-.06.11.14.14,0,0,0,.2.05S277.33,46.45,277.36,46.4Zm-48.5-6.29s-.05-.12-.08-.12-.16.11-.18.21.05.11.07.11S228.84,40.22,228.86,40.11ZM99.44,35.71a1.09,1.09,0,0,0-.17-.13s-.09,0-.06.1a.53.53,0,0,0,.15.15S99.41,35.76,99.44,35.71ZM210.6,139.09c0-.06-.07-.15-.17-.09s-.05.09,0,.13.09.13.17.09S210.59,139.14,210.6,139.09Zm38.83.13c0-.06,0-.13-.06-.14a.16.16,0,0,0-.2.09c0,.07,0,.16.08.16S249.37,139.25,249.43,139.22ZM129.14,84.34c0-.09,0-.17-.12-.19s-.14,0-.13.13a.14.14,0,0,0,.15.15S129.11,84.37,129.14,84.34Zm38.39-57.58c.1,0,.12-.08.14-.15a.39.39,0,0,0,0-.15,1,1,0,0,0-.13.17A.2.2,0,0,0,167.53,26.76ZM51.92,150.54c0-.09-.1-.13-.17-.1s-.06.08-.07.12,0,.15.14.14S51.93,150.62,51.92,150.54ZM33,34.22a.08.08,0,0,0-.1-.08.22.22,0,0,0-.09.12.07.07,0,0,0,.1.08S33,34.27,33,34.22Zm105.56-9.33a.15.15,0,0,0-.1.19,1,1,0,0,0,.11.2.78.78,0,0,0,.09-.21A.14.14,0,0,0,138.58,24.89Zm108.24-.8c0-.08,0-.13-.07-.12s-.18,0-.21.05,0,.15.09.15A.84.84,0,0,0,246.82,24.09ZM3.76,163.83c0-.07,0-.13,0-.12s-.07.07-.1.11,0,.12,0,.1S3.73,163.86,3.76,163.83ZM45.89,28c0-.08-.08-.15-.17-.14a.17.17,0,0,0-.17.21c0,.05.14.08.21.08S45.91,28.09,45.89,28ZM3.78,166.89a.61.61,0,0,0,0-.14c-.1,0-.14.06-.16.13s0,.17.07.18S3.77,167,3.78,166.89ZM193.68,23a.15.15,0,0,0,.13.16c.09,0,.14,0,.18-.11s0-.18-.07-.2S193.73,22.89,193.68,23ZM125.9,168c0-.08,0-.17-.13-.14a.41.41,0,0,0-.2.12c-.06.1,0,.15.09.16S125.88,168.14,125.9,168ZM270,170.62s-.15.06-.16.11.09.17.2.16.16-.06.15-.16S270.1,170.62,270,170.62ZM194.26,16.69c0-.06.05-.11,0-.15s0-.34-.22-.22S194.12,16.59,194.26,16.69Zm7.64,154.42s0-.12-.05-.12a.13.13,0,0,0-.16.12s0,.12.05.12S201.88,171.19,201.9,171.11ZM139.2,14.48a.72.72,0,0,0-.09.2c0,.06.07.08.12,0a.3.3,0,0,0,.06-.14C139.31,14.5,139.28,14.46,139.2,14.48Zm112.22-.25a.82.82,0,0,0-.11-.17s-.12,0-.11,0a.47.47,0,0,0,.12.18C251.36,14.34,251.4,14.32,251.42,14.23Zm-36.49-.12c0-.1,0-.17-.13-.17s-.18,0-.15.12a.32.32,0,0,0,.14.18C214.89,14.28,214.91,14.18,214.93,14.11ZM18,175.4a.12.12,0,0,0-.05-.05c-.06-.07-.09-.07-.07,0a.17.17,0,0,0,.06.06ZM211,78c0-.06,0-.13-.07-.14s-.14,0-.15.12a.39.39,0,0,0,.05.14Zm-41.61,99.2c0,.09.08.15.16.14s.21-.09.17-.22-.12-.09-.2-.08A.13.13,0,0,0,169.42,177.16ZM4.57,27.61a.42.42,0,0,0,.06-.15c0-.08,0-.17-.12-.18s-.09.06-.06.12A1.57,1.57,0,0,0,4.57,27.61Zm216.49,154s.1,0,.12-.08a.08.08,0,0,0-.05-.13.14.14,0,0,0-.17.11S221,181.53,221.06,181.56ZM39.66,85.23c-.06,0-.11-.09-.13-.08s-.14.16-.13.27.05.11.08.08A2.53,2.53,0,0,0,39.66,85.23ZM265.93,32.62a.16.16,0,0,0-.07-.2c-.05,0-.1,0-.1.06a.29.29,0,0,0,.05.14S265.89,32.62,265.93,32.62ZM80,183.09c0-.1-.07-.18-.16-.17a.22.22,0,0,0-.17.14c0,.13.08.18.19.18A.15.15,0,0,0,80,183.09ZM84.42,14a.13.13,0,0,0,.17.11s.08-.07.08-.12a.12.12,0,0,0-.12-.15C84.46,13.81,84.42,13.88,84.42,14Zm165.49,135.9c0-.09-.07-.22-.2-.2s-.12.15-.13.25a.13.13,0,0,0,.12.16C249.84,150.09,249.87,150,249.91,149.87ZM107.68,186.52a.7.7,0,0,0-.06.19c0,.09,0,.15.15.12a.13.13,0,0,0,.1-.17A.17.17,0,0,0,107.68,186.52ZM135,188.1a.19.19,0,0,0-.11.2.07.07,0,0,0,.12,0,.25.25,0,0,0,.08-.14A.08.08,0,0,0,135,188.1Zm37.25-78.35a.18.18,0,0,0,.06-.22c0-.07-.06-.08-.13,0a.12.12,0,0,0-.06.19S172.25,109.73,172.29,109.75Zm95.54,79.79s0-.1,0-.15h0v.14Zm-210-52a.14.14,0,0,0,.12-.17.15.15,0,0,0-.11-.08c-.08,0-.16,0-.16.11A.15.15,0,0,0,57.86,137.5Z" transform="translate(0.16 -0.21)"/><path class="cls-2" d="M-.16,101.3a1.93,1.93,0,0,1,.48.08c.27.11.26.36.15.56s-.28.06-.42,0l-.21-.12Z" transform="translate(0.16 -0.21)"/><path class="cls-2" d="M35.88.21c-.16.34-.09.76-.36,1.09-.37-.47.17-.73.19-1.09Z" transform="translate(0.16 -0.21)"/><path class="cls-2" d="M-.16,132.71l.14-.07c.09,0,.2-.12.29,0s0,.18-.09.26a.42.42,0,0,1-.34.17Z" transform="translate(0.16 -0.21)"/><path class="cls-2" d="M-.16,140.23l.16,0c.09,0,.24,0,.24.13s-.14.14-.24.16l-.16,0Z" transform="translate(0.16 -0.21)"/><path class="cls-2" d="M147.73,182.33c0,.19-.2.37,0,.59s0,.45-.13.65-.6.18-.92.1a.41.41,0,0,1-.36-.47,7.94,7.94,0,0,1,.11-1,.84.84,0,0,1,.94-.47C147.63,181.8,147.74,182,147.73,182.33Z" transform="translate(0.16 -0.21)"/><path class="cls-2" d="M178.33,109.78a1.46,1.46,0,0,1,.54-1.16c.18-.13.36-.19.52-.08a.34.34,0,0,1,0,.45,1,1,0,0,0-.19.77c0,.42-.34.55-.58.57s-.19-.38-.29-.58l.23.07c.11,0,.22,0,.27-.11s0-.12,0-.14-.24,0-.35,0A1,1,0,0,0,178.33,109.78Z" transform="translate(0.16 -0.21)"/><path class="cls-2" d="M80.53,86.11c0-.33,0-.73.41-.75s.29.46.43.7a.37.37,0,0,1,0,.31c-.09.2,0,.56-.37.54s-.5-.29-.48-.64C80.52,86.22,80.52,86.17,80.53,86.11Z" transform="translate(0.16 -0.21)"/><path class="cls-2" d="M85.55,164.56a1.33,1.33,0,0,1-.43-.07c-.13-.07-.3-.18-.29-.36a.31.31,0,0,1,.34-.29.93.93,0,0,0,.79-.34c.06-.06.11-.12.2-.09a.16.16,0,0,1,.13.19,2.18,2.18,0,0,1-.47,1C85.75,164.65,85.62,164.58,85.55,164.56Z" transform="translate(0.16 -0.21)"/><path class="cls-2" d="M62.53,35.07a.38.38,0,0,0,.08.57.66.66,0,0,1,.18.61.31.31,0,0,1-.32.31c-.18,0-.19-.16-.23-.29A10,10,0,0,0,62,34.74a.21.21,0,0,1,.16-.26.22.22,0,0,1,.3.18A2.9,2.9,0,0,1,62.53,35.07Z" transform="translate(0.16 -0.21)"/><path class="cls-2" d="M107.63,52.92a2.89,2.89,0,0,1-1.69-1.21,1.71,1.71,0,0,1,.11-.14l1.7,1.14Z" transform="translate(0.16 -0.21)"/><path class="cls-2" d="M138.68,42.37c-.21.55-.41.69-.76.6-.2-.06-.23-.23-.26-.38a.28.28,0,0,1,.3-.32A3.57,3.57,0,0,1,138.68,42.37Z" transform="translate(0.16 -0.21)"/><path class="cls-2" d="M186.62,171.57c-.37.76-.61.84-1,.41-.19-.23-.07-.33.15-.4h.82Z" transform="translate(0.16 -0.21)"/><path class="cls-2" d="M271.25,60.32c.46.06.69.26.73.67,0,.11,0,.22-.08.28a.28.28,0,0,1-.36-.09A1.15,1.15,0,0,1,271.25,60.32Z" transform="translate(0.16 -0.21)"/><path class="cls-2" d="M125.46,69.74a.29.29,0,0,1-.35.27.56.56,0,0,1-.44-.52.33.33,0,0,1,.4-.31C125.35,69.24,125.43,69.49,125.46,69.74Z" transform="translate(0.16 -0.21)"/><path class="cls-2" d="M249.71,18.05a2.74,2.74,0,0,0,1.45-.59.27.27,0,0,1,.38,0c.1.14,0,.25-.15.31A2.94,2.94,0,0,1,249.71,18.05Z" transform="translate(0.16 -0.21)"/><path class="cls-2" d="M122.29,43.12c0,.17,0,.45-.27.42a.47.47,0,0,1-.45-.5.4.4,0,0,1,.43-.41C122.3,42.64,122.28,42.9,122.29,43.12Z" transform="translate(0.16 -0.21)"/><path class="cls-2" d="M186.05,90.2c-.29-.31-.17-.6-.22-.86s0-.29.19-.29a.29.29,0,0,1,.33.29A1.13,1.13,0,0,1,186.05,90.2Z" transform="translate(0.16 -0.21)"/><path class="cls-2" d="M250.69,91.79c.31.35.4.65.08.91a.3.3,0,0,1-.43-.06C250.14,92.26,250.42,92.05,250.69,91.79Z" transform="translate(0.16 -0.21)"/><path class="cls-2" d="M168.75,9.88a.17.17,0,0,1-.23-.17c0-.09.55-.57.66-.56a.21.21,0,0,1,.19.23C169.38,9.69,169.15,9.88,168.75,9.88Z" transform="translate(0.16 -0.21)"/><path class="cls-2" d="M109.14,63.64a.35.35,0,0,1-.36.39c-.29,0-.32-.32-.37-.55a.23.23,0,0,1,.24-.27A.47.47,0,0,1,109.14,63.64Z" transform="translate(0.16 -0.21)"/><path class="cls-2" d="M173.15,70.25c.24-.28.53-.22.78-.3a.23.23,0,0,1,.31.18c0,.17-.15.21-.27.25C173.67,70.48,173.42,70.3,173.15,70.25Z" transform="translate(0.16 -0.21)"/><path class="cls-2" d="M37.76,51.48c-.07.2,0,.46-.38.43-.17,0-.32-.07-.3-.29s.05-.45.36-.43A.3.3,0,0,1,37.76,51.48Z" transform="translate(0.16 -0.21)"/><path class="cls-2" d="M273.24,38.66l-.59.5a.24.24,0,0,1-.3,0,.17.17,0,0,1-.08-.21,1.12,1.12,0,0,1,.63-.58C273,38.39,273.1,38.56,273.24,38.66Z" transform="translate(0.16 -0.21)"/><path class="cls-2" d="M89.39,41.42a1.49,1.49,0,0,1-.11,1.68C89.3,42.54,89.34,42,89.39,41.42Z" transform="translate(0.16 -0.21)"/><path class="cls-2" d="M13.76,25.57c-.2,0-.24-.17-.27-.36s.22-.27.37-.31.17.12.19.25S14.1,25.54,13.76,25.57Z" transform="translate(0.16 -0.21)"/><path class="cls-2" d="M50.6,121.1c.13,0,.35,0,.33.22s-.08.4-.3.43-.33-.13-.34-.36S50.36,121.08,50.6,121.1Z" transform="translate(0.16 -0.21)"/><path class="cls-2" d="M2.27,75.71c0,.18-.18.19-.31.18-.32,0-.39-.26-.41-.51s.13-.17.24-.14S2.26,75.39,2.27,75.71Z" transform="translate(0.16 -0.21)"/><path class="cls-2" d="M97,100.24c.27-.12.56-.17.71-.53C97.81,100.48,97.81,100.48,97,100.24Z" transform="translate(0.16 -0.21)"/><path class="cls-2" d="M248.5,47c-.18,0-.34-.07-.35-.26s.07-.42.29-.41.32.26.35.46S248.61,47,248.5,47Z" transform="translate(0.16 -0.21)"/><path class="cls-2" d="M255.92,106.21c-.18-.29-.59-.36-.62-.77,0-.11-.05-.23.09-.27a.2.2,0,0,1,.27.11l.42.85Z" transform="translate(0.16 -0.21)"/><path class="cls-2" d="M228.56,38.77c.28.4.43.7-.14,1A1,1,0,0,1,228.56,38.77Z" transform="translate(0.16 -0.21)"/><path class="cls-2" d="M36.34,69.05c.26.13.26.37.23.62s-.14.3-.26.25c-.34-.13-.21-.45-.21-.7S36.21,69.06,36.34,69.05Z" transform="translate(0.16 -0.21)"/><path class="cls-2" d="M132.39,173.88c.06-.34.3-.33.45-.41a.32.32,0,0,1,.45.22c.06.32-.21.23-.38.23S132.59,173.9,132.39,173.88Z" transform="translate(0.16 -0.21)"/><path class="cls-2" d="M166.08,49.78c0-.14-.14-.44.17-.42s.22.32.23.52,0,.35-.23.34S166.06,50,166.08,49.78Z" transform="translate(0.16 -0.21)"/><path class="cls-2" d="M97.64,96.6a.36.36,0,0,1,.32-.37c.19,0,.18.18.19.29a.37.37,0,0,1-.27.44C97.68,97,97.65,96.79,97.64,96.6Z" transform="translate(0.16 -0.21)"/><path class="cls-2" d="M162.81,161.38c.24.11.17.27.21.39s.25.26,0,.43a.26.26,0,0,1-.21.08c-.25-.08-.15-.32-.19-.49S162.73,161.53,162.81,161.38Z" transform="translate(0.16 -0.21)"/><path class="cls-2" d="M270.54,106c.46-.21.46-.21.85,0A1,1,0,0,1,270.54,106Z" transform="translate(0.16 -0.21)"/><path class="cls-2" d="M159.54,86.14a.28.28,0,0,1-.29.24c-.24,0-.27-.14-.26-.32s0-.25.14-.24A.4.4,0,0,1,159.54,86.14Z" transform="translate(0.16 -0.21)"/><path class="cls-2" d="M257.44,25.1a1.24,1.24,0,0,1,.37-1.12C257.83,24.46,257.48,24.72,257.44,25.1Z" transform="translate(0.16 -0.21)"/><path class="cls-2" d="M14.88,65.16c0-.19,0-.31.2-.27s.33.13.27.34-.07.36-.29.35S14.92,65.29,14.88,65.16Z" transform="translate(0.16 -0.21)"/><path class="cls-2" d="M96.56,91.77a.38.38,0,0,1-.34.36.12.12,0,0,1-.14-.15c0-.17,0-.4.28-.43S96.54,91.64,96.56,91.77Z" transform="translate(0.16 -0.21)"/><path class="cls-2" d="M119.47,172.06a3,3,0,0,1-.18-1.26A1.68,1.68,0,0,1,119.47,172.06Z" transform="translate(0.16 -0.21)"/><path class="cls-2" d="M184.94,16.35a.44.44,0,0,1,.12.11.52.52,0,0,1,0,.54c0,.07-.15,0-.2,0C184.68,16.72,184.66,16.51,184.94,16.35Z" transform="translate(0.16 -0.21)"/><path class="cls-2" d="M115.65,161s-.05.06-.07.06c-.23,0-.46.27-.68,0a.16.16,0,0,1,0-.22C115.2,160.71,115.42,160.87,115.65,161Z" transform="translate(0.16 -0.21)"/><path class="cls-2" d="M134.19,148.81c.13-.23.19-.51.45-.65.27.13.23.37.13.56s-.37.15-.58.09Z" transform="translate(0.16 -0.21)"/><path class="cls-2" d="M102.4,107c.48,0,.48,0,.61-.5C103.18,107.1,103.16,107.12,102.4,107Z" transform="translate(0.16 -0.21)"/><path class="cls-2" d="M255.9,100.78a1,1,0,0,1,.23,0,.15.15,0,0,1,.14.16c0,.07-.08.17-.14.18a1.35,1.35,0,0,1-.4,0c-.11,0-.23-.08-.22-.21S255.66,100.73,255.9,100.78Z" transform="translate(0.16 -0.21)"/><path class="cls-2" d="M34.5,73.62a.91.91,0,0,1-.24,1.08A1.47,1.47,0,0,1,34.5,73.62Z" transform="translate(0.16 -0.21)"/><path class="cls-2" d="M154.36,136.34a1.06,1.06,0,0,1-.56,0C154.09,136,154.09,136,154.36,136.34Z" transform="translate(0.16 -0.21)"/><path class="cls-2" d="M133.93,5.93c-.11,0-.24-.11-.21-.27s.18-.12.27-.08.32,0,.23.21A.24.24,0,0,1,133.93,5.93Z" transform="translate(0.16 -0.21)"/><path class="cls-2" d="M49.33,51.84c0,.25-.06.34-.22.34s-.29-.07-.29-.21.21-.28.39-.28S49.33,51.83,49.33,51.84Z" transform="translate(0.16 -0.21)"/><path class="cls-2" d="M219.86,154.84c.13.32.56.54.35,1.07-.32-.34-.59-.62-.34-1.07Z" transform="translate(0.16 -0.21)"/><path class="cls-2" d="M259.83,38.47c-.16,0-.21-.06-.21-.14s.14-.27.32-.27a.47.47,0,0,1,.2.06C260.11,38.33,259.91,38.37,259.83,38.47Z" transform="translate(0.16 -0.21)"/><path class="cls-2" d="M149.08,139.75c-.06.16,0,.4-.3.38s-.14-.14-.11-.25,0-.34.24-.35S149.08,139.63,149.08,139.75Z" transform="translate(0.16 -0.21)"/><path class="cls-2" d="M182.65,38.79c.08.06.12.07.12.09,0,.18.15.37,0,.55s-.13,0-.14,0A.67.67,0,0,1,182.65,38.79Z" transform="translate(0.16 -0.21)"/><path class="cls-2" d="M118.41,143.23c.07-.31.09-.47.13-.63s.09-.28.28-.19a.23.23,0,0,1,.11.34A3.75,3.75,0,0,1,118.41,143.23Z" transform="translate(0.16 -0.21)"/><path class="cls-2" d="M158.34,138.39c-.17,0-.26-.07-.24-.2a.38.38,0,0,1,.34-.39c.1,0,.24,0,.25.15C158.74,138.24,158.47,138.28,158.34,138.39Z" transform="translate(0.16 -0.21)"/><path class="cls-2" d="M18.63,156.09c.15-.33.3-.55.67-.61C19.2,155.82,19.09,156.09,18.63,156.09Z" transform="translate(0.16 -0.21)"/><path class="cls-2" d="M180.25,2.17a1.59,1.59,0,0,1,.74.75A2,2,0,0,1,180.25,2.17Z" transform="translate(0.16 -0.21)"/><path class="cls-2" d="M36.76,3.12c0-.05-.09-.09-.09-.13s-.05-.39.14-.51a.14.14,0,0,1,.19.08C37.09,2.82,37.08,3,36.76,3.12Z" transform="translate(0.16 -0.21)"/><path class="cls-2" d="M242,68.55c0,.14,0,.28-.2.29s-.19-.08-.22-.19.06-.25.21-.26S242,68.4,242,68.55Z" transform="translate(0.16 -0.21)"/><path class="cls-2" d="M57.23,102.38s.07,0,.07.07c0,.22.11.48-.15.65,0,0-.11,0-.12-.07A.56.56,0,0,1,57.23,102.38Z" transform="translate(0.16 -0.21)"/><path class="cls-2" d="M73,16.94c-.06.07-.09.13-.12.13-.21,0-.43.11-.61-.07s0-.16,0-.21A.49.49,0,0,1,73,16.94Z" transform="translate(0.16 -0.21)"/><path class="cls-2" d="M219.08,15.52c0,.15-.07.25-.25.23s-.27,0-.2-.24.08-.27.25-.27S219.1,15.36,219.08,15.52Z" transform="translate(0.16 -0.21)"/><path class="cls-2" d="M270.85,33.36c-.24.08-.32.4-.59.23a.21.21,0,0,1,0-.29C270.4,33,270.58,33.2,270.85,33.36Z" transform="translate(0.16 -0.21)"/><path class="cls-2" d="M30.11,37.43c0,.15.05.36-.16.39s-.2-.16-.2-.29,0-.35.24-.35S30.11,37.32,30.11,37.43Z" transform="translate(0.16 -0.21)"/><path class="cls-2" d="M78.34,23c-.07.26-.13.52-.2.78a.85.85,0,0,1,0-.85Z" transform="translate(0.16 -0.21)"/><path class="cls-2" d="M259.56,63.21c0,.13-.05.22-.17.23s-.24,0-.25-.15a.28.28,0,0,1,.21-.31C259.46,63,259.54,63.09,259.56,63.21Z" transform="translate(0.16 -0.21)"/><path class="cls-2" d="M241.71,50.47c0,.15-.08.33-.25.38s-.19-.07-.19-.19.06-.34.27-.35A.17.17,0,0,1,241.71,50.47Z" transform="translate(0.16 -0.21)"/><path class="cls-2" d="M259.07,60.09c-.06.21-.25.17-.39.16a.16.16,0,0,1-.15-.23.3.3,0,0,1,.3-.22C259,59.82,259,60,259.07,60.09Z" transform="translate(0.16 -0.21)"/><path class="cls-2" d="M113,125.86a1.67,1.67,0,0,1,.41.79A.91.91,0,0,1,113,125.86Z" transform="translate(0.16 -0.21)"/><path class="cls-2" d="M67.75,42a.76.76,0,0,1,.17.12c.09.1.22.19.15.34s-.1.07-.14.06c-.2-.06-.18-.25-.23-.4S67.71,42,67.75,42Z" transform="translate(0.16 -0.21)"/><path class="cls-2" d="M118.79,21c0-.44,0-.68.2-.87a.93.93,0,0,1,.07.19C119.08,20.54,118.9,20.66,118.79,21Z" transform="translate(0.16 -0.21)"/><path class="cls-2" d="M178.38,18.72c0,.11-.07.23-.19.23a.24.24,0,0,1-.22-.28c0-.11.05-.29.22-.26A.26.26,0,0,1,178.38,18.72Z" transform="translate(0.16 -0.21)"/><path class="cls-2" d="M31.58,127.67l.44-.51C32.07,127.5,31.89,127.65,31.58,127.67Z" transform="translate(0.16 -0.21)"/><path class="cls-2" d="M75.81,167V168C75.51,167.64,75.59,167.42,75.81,167Z" transform="translate(0.16 -0.21)"/><path class="cls-2" d="M124.2,51.46a1.66,1.66,0,0,1-1.14,0C123.51,51.21,123.77,51.34,124.2,51.46Z" transform="translate(0.16 -0.21)"/><path class="cls-2" d="M24.39,106.18c0,.13-.08.21-.19.21a.19.19,0,0,1-.2-.21c0-.09.08-.13.16-.14S24.37,106.05,24.39,106.18Z" transform="translate(0.16 -0.21)"/><path class="cls-2" d="M105.22,8.14c.09.07.27,0,.28.22s-.12.1-.19.11a.2.2,0,0,1-.27-.21C105,8.17,105.12,8.14,105.22,8.14Z" transform="translate(0.16 -0.21)"/><path class="cls-2" d="M135.24,147.38a.22.22,0,0,1-.24.17c-.11,0-.22-.1-.22-.19a.2.2,0,0,1,.27-.2A.23.23,0,0,1,135.24,147.38Z" transform="translate(0.16 -0.21)"/><path class="cls-2" d="M248.64,90.4c-.13,0-.12-.09-.16-.15s-.1-.22.07-.25a.13.13,0,0,1,.12.09C248.67,90.19,248.65,90.3,248.64,90.4Z" transform="translate(0.16 -0.21)"/><path class="cls-2" d="M5.41,147.9a.23.23,0,0,1-.23-.17c0-.1.06-.14.14-.13s.23,0,.25.15S5.51,147.89,5.41,147.9Z" transform="translate(0.16 -0.21)"/><path class="cls-2" d="M137.41,97.13a.18.18,0,0,1-.18.2c-.13,0-.18-.09-.17-.21a.2.2,0,0,1,.18-.22C137.36,96.91,137.4,97,137.41,97.13Z" transform="translate(0.16 -0.21)"/><path class="cls-2" d="M93.74,138.92l-.09-.1c0-.16-.11-.31,0-.47s.13,0,.13,0a.69.69,0,0,1,0,.47S93.78,138.86,93.74,138.92Z" transform="translate(0.16 -0.21)"/><path class="cls-2" d="M133.3,31.85a.23.23,0,0,1,.21.21c0,.08,0,.17-.12.17s-.27,0-.25-.22A.17.17,0,0,1,133.3,31.85Z" transform="translate(0.16 -0.21)"/><path class="cls-2" d="M132.66,155.14c.18,0,.34,0,.45.09s0,.12-.05.13C132.88,155.4,132.79,155.23,132.66,155.14Z" transform="translate(0.16 -0.21)"/><path class="cls-2" d="M261,49.5a.5.5,0,0,1,.54,0C261.34,49.76,261.14,49.48,261,49.5Z" transform="translate(0.16 -0.21)"/><path class="cls-2" d="M130.72,57.84a.3.3,0,0,1-.16-.34.18.18,0,0,1,.22-.17c.12,0,.1.18.08.29S130.88,57.85,130.72,57.84Z" transform="translate(0.16 -0.21)"/><path class="cls-2" d="M107.09,125.87c.12,0,.29,0,.27.19s-.14.14-.25.13-.22,0-.24-.15S107,125.89,107.09,125.87Z" transform="translate(0.16 -0.21)"/><path class="cls-2" d="M250.72,135.77a.5.5,0,0,1,.18.35c0,.1-.06.15-.16.12a.25.25,0,0,1-.17-.32C250.59,135.85,250.62,135.77,250.72,135.77Z" transform="translate(0.16 -0.21)"/><path class="cls-2" d="M170.78,121.07c0,.08,0,.17,0,.23s-.19.3-.35.13-.05-.24.07-.33a.27.27,0,0,1,.3,0Z" transform="translate(0.16 -0.21)"/><path class="cls-2" d="M32.2,129.4c0,.16-.12.15-.23.14s-.24,0-.23-.18.13-.16.24-.16S32.19,129.26,32.2,129.4Z" transform="translate(0.16 -0.21)"/><path class="cls-2" d="M270.09,161.62c0,.07,0,.21-.17.2s-.17-.18-.16-.31.11-.21.22-.18S270.12,161.48,270.09,161.62Z" transform="translate(0.16 -0.21)"/><path class="cls-2" d="M169.67,68.51a.79.79,0,0,1-.14-.18c-.06-.15,0-.26.15-.29a.14.14,0,0,1,.18.11A.44.44,0,0,1,169.67,68.51Z" transform="translate(0.16 -0.21)"/><path class="cls-2" d="M88.17,55.06a.21.21,0,0,1-.17.23.21.21,0,0,1-.26-.21.19.19,0,0,1,.2-.2A.2.2,0,0,1,88.17,55.06Z" transform="translate(0.16 -0.21)"/><path class="cls-2" d="M113.16,184.81c.2.1.28.23.18.44s-.13.12-.19.06A.37.37,0,0,1,113.16,184.81Z" transform="translate(0.16 -0.21)"/><path class="cls-2" d="M109.23,115.46a.29.29,0,0,1,.12.28s-.08.1-.1.09-.09-.17-.1-.27S109.18,115.46,109.23,115.46Z" transform="translate(0.16 -0.21)"/><path class="cls-2" d="M195,73c0,.15,0,.26-.13.28s-.18-.1-.19-.2,0-.24.13-.26S194.92,73,195,73Z" transform="translate(0.16 -0.21)"/><path class="cls-2" d="M18.06,13.63c-.09,0-.16,0-.15-.12a.28.28,0,0,1,.25-.27c.07,0,.18,0,.17.11A.38.38,0,0,1,18.06,13.63Z" transform="translate(0.16 -0.21)"/><path class="cls-2" d="M119.37,127.91c0,.21-.11.35-.26.6C119.09,128.19,119.1,128,119.37,127.91Z" transform="translate(0.16 -0.21)"/><path class="cls-2" d="M232.59.93c.07-.09.07-.26.24-.24s.08.09.07.12,0,.28-.23.24C232.64,1.05,232.62,1,232.59.93Z" transform="translate(0.16 -0.21)"/><path class="cls-2" d="M255.05,158.88c-.09.1-.14.24-.31.19a.17.17,0,0,1-.12-.24.19.19,0,0,1,.23-.16C255,158.68,255,158.77,255.05,158.88Z" transform="translate(0.16 -0.21)"/><path class="cls-2" d="M210.26,159.07c.12,0,.13.05.15.12s0,.27-.13.33-.15,0-.17-.12A.26.26,0,0,1,210.26,159.07Z" transform="translate(0.16 -0.21)"/><path class="cls-2" d="M241.27,159.4c0,.09,0,.17-.12.17s-.15-.15-.15-.25,0-.21.06-.21C241.24,159.12,241.26,159.26,241.27,159.4Z" transform="translate(0.16 -0.21)"/><path class="cls-2" d="M19.9,161.38c-.19,0-.37-.06-.35-.3s.27-.06.35.14C19.92,161.26,19.9,161.32,19.9,161.38Z" transform="translate(0.16 -0.21)"/><path class="cls-2" d="M64.37,175.28c0,.07-.1.13-.18.09a.19.19,0,0,1-.12-.26.13.13,0,0,1,.18-.09C64.38,175.06,64.4,175.16,64.37,175.28Z" transform="translate(0.16 -0.21)"/><path class="cls-2" d="M194.46,186.29c-.08,0-.17,0-.19-.09s.07-.18.18-.21.17,0,.19.08S194.57,186.26,194.46,186.29Z" transform="translate(0.16 -0.21)"/><path class="cls-2" d="M29.83,188.38c.07.21,0,.37-.15.43,0,0-.12,0-.12-.06C29.55,188.56,29.72,188.49,29.83,188.38Z" transform="translate(0.16 -0.21)"/><path class="cls-2" d="M219.09,17.63c0,.12-.07.13-.15.12a.23.23,0,0,1-.22-.27.34.34,0,0,1,.08-.2C219,17.31,219,17.51,219.09,17.63Z" transform="translate(0.16 -0.21)"/><path class="cls-2" d="M142.81,25a.72.72,0,0,1,.61,0,.13.13,0,0,1-.12.17A.45.45,0,0,1,142.81,25Z" transform="translate(0.16 -0.21)"/><path class="cls-2" d="M153,28.65c.07.23.05.39-.11.49a.14.14,0,0,1-.14,0C152.68,28.85,152.92,28.82,153,28.65Z" transform="translate(0.16 -0.21)"/><path class="cls-2" d="M73.43,21.76c-.05,0-.14,0-.14,0-.05-.17.08-.24.2-.28s.14,0,.14,0S73.55,21.71,73.43,21.76Z" transform="translate(0.16 -0.21)"/><path class="cls-2" d="M231.58,43.42c0,.12-.1.21-.22.2a.19.19,0,0,1-.17-.23.2.2,0,0,1,.22-.18C231.55,43.21,231.57,43.32,231.58,43.42Z" transform="translate(0.16 -0.21)"/><path class="cls-2" d="M186,48.46a.21.21,0,0,1-.23-.18c0-.11,0-.23.11-.25s.19.07.22.18S186.17,48.42,186,48.46Z" transform="translate(0.16 -0.21)"/><path class="cls-2" d="M82.13,57.17l.79.25C82.6,57.6,82.42,57.57,82.13,57.17Z" transform="translate(0.16 -0.21)"/><path class="cls-2" d="M125.91,67.6a.24.24,0,0,1,.24.17c0,.16-.12.13-.21.13s-.21-.05-.2-.18S125.82,67.6,125.91,67.6Z" transform="translate(0.16 -0.21)"/><path class="cls-2" d="M164.23,120.23a.29.29,0,0,1-.26.26c-.09,0-.18,0-.17-.12s.1-.32.29-.31S164.23,120.13,164.23,120.23Z" transform="translate(0.16 -0.21)"/><path class="cls-2" d="M251.26,95a.13.13,0,0,1,.14.15.25.25,0,0,1-.19.22c-.1,0-.15-.06-.14-.14A.24.24,0,0,1,251.26,95Z" transform="translate(0.16 -0.21)"/><path class="cls-2" d="M72.61,122.9a.21.21,0,0,1-.17.23.18.18,0,0,1-.21-.18c0-.15,0-.28.21-.28S72.59,122.79,72.61,122.9Z" transform="translate(0.16 -0.21)"/><path class="cls-2" d="M251.71,126.86c-.11,0-.27-.09-.18-.28a.16.16,0,0,1,.13-.06c.14.06.16.21.19.34S251.77,126.91,251.71,126.86Z" transform="translate(0.16 -0.21)"/><path class="cls-2" d="M8.42,128.27a.13.13,0,0,1,.14.14c0,.11,0,.21-.13.24s-.13-.06-.13-.14A.2.2,0,0,1,8.42,128.27Z" transform="translate(0.16 -0.21)"/><path class="cls-2" d="M2.82,129.06c.1,0,.11.09.09.16s-.08.15-.14.16a.11.11,0,0,1-.15-.12A.21.21,0,0,1,2.82,129.06Z" transform="translate(0.16 -0.21)"/><path class="cls-2" d="M159.62,131.69a.79.79,0,0,1-.11-.7A.86.86,0,0,1,159.62,131.69Z" transform="translate(0.16 -0.21)"/><path class="cls-2" d="M153.38,134a.2.2,0,0,1-.15-.24c0-.11.06-.22.2-.2s.2.08.16.22A.31.31,0,0,1,153.38,134Z" transform="translate(0.16 -0.21)"/><path class="cls-2" d="M262.82,135.07c0-.19-.12-.47.13-.45s.07.22,0,.33A.46.46,0,0,1,262.82,135.07Z" transform="translate(0.16 -0.21)"/><path class="cls-2" d="M95.87,140c-.05,0-.13,0-.13-.06s.09-.22.21-.25a.21.21,0,0,1,.13,0C96.09,139.83,96,139.9,95.87,140Z" transform="translate(0.16 -0.21)"/><path class="cls-2" d="M101.9,146.39a.23.23,0,0,1-.34.05c-.06-.05-.12-.11-.06-.2a.24.24,0,0,1,.35-.06A.14.14,0,0,1,101.9,146.39Z" transform="translate(0.16 -0.21)"/><path class="cls-2" d="M244.07,2.44c-.26-.21-.12-.39-.06-.62A.46.46,0,0,1,244.07,2.44Z" transform="translate(0.16 -0.21)"/><path class="cls-2" d="M107.54,3.53l.17.11a.72.72,0,0,1-.19.13.14.14,0,0,1-.19-.12C107.33,3.56,107.4,3.51,107.54,3.53Z" transform="translate(0.16 -0.21)"/><path class="cls-2" d="M258,180.16c.08,0,.12,0,.12.07a.66.66,0,0,1,0,.15c0,.07-.1.07-.11,0A1.43,1.43,0,0,1,258,180.16Z" transform="translate(0.16 -0.21)"/><path class="cls-2" d="M218.86,10.12c.1.18,0,.41-.12.39s0-.2,0-.3S218.82,10.15,218.86,10.12Z" transform="translate(0.16 -0.21)"/><path class="cls-2" d="M8.26,11.46c-.11,0-.14-.1-.16-.18s.06-.19.18-.17a.12.12,0,0,1,.11.17A.83.83,0,0,1,8.26,11.46Z" transform="translate(0.16 -0.21)"/><path class="cls-2" d="M69.23,46.39c0,.09,0,.13-.15.1a.19.19,0,0,1-.15-.23c0-.08,0-.16.14-.13A.25.25,0,0,1,69.23,46.39Z" transform="translate(0.16 -0.21)"/><path class="cls-2" d="M100.41,182c-.11,0-.2-.05-.2-.17s.07-.14.15-.14.22,0,.21.16A.16.16,0,0,1,100.41,182Z" transform="translate(0.16 -0.21)"/><path class="cls-1" d="M178.33,109.78a1,1,0,0,1,.16-.19c.11-.07.23-.17.35,0s0,.1,0,.14-.16.12-.27.11l-.23-.07Z" transform="translate(0.16 -0.21)"/><path class="cls-2" d="M171,14.18c0,.05-.06.11-.1.12a.13.13,0,0,1-.17-.11c0-.09,0-.18.11-.16S170.92,14.13,171,14.18Z" transform="translate(0.16 -0.21)"/><path class="cls-2" d="M158,185.14a.13.13,0,0,1,.15.12c0,.07-.06.13-.1.19a.66.66,0,0,1-.15-.14C157.88,185.22,158,185.17,158,185.14Z" transform="translate(0.16 -0.21)"/><path class="cls-2" d="M177.36,76.54a1.18,1.18,0,0,1-.08.12.44.44,0,0,1-.3-.33.21.21,0,0,1,.08-.11C177.2,76.29,177.33,76.37,177.36,76.54Z" transform="translate(0.16 -0.21)"/><path class="cls-2" d="M29.05,113.21a.12.12,0,0,1-.12-.16.27.27,0,0,1,.19-.23.14.14,0,0,1,.16.13C29.29,113.11,29.18,113.18,29.05,113.21Z" transform="translate(0.16 -0.21)"/><path class="cls-2" d="M73,35.3s0,0-.13,0a.13.13,0,0,1-.1-.18.15.15,0,0,1,.09-.1C73,35,73,35.07,73,35.3Z" transform="translate(0.16 -0.21)"/><path class="cls-2" d="M181.54,114.21a.8.8,0,0,1,.05.21c0,.08,0,.18-.11.1s0-.14,0-.22S181.46,114.2,181.54,114.21Z" transform="translate(0.16 -0.21)"/><path class="cls-2" d="M150.67,85.68c0,.06,0,.24-.15.23s-.11-.16-.12-.26a.16.16,0,0,1,.17-.2C150.66,85.46,150.69,85.54,150.67,85.68Z" transform="translate(0.16 -0.21)"/><path class="cls-2" d="M136.21,72.74c.1,0,.16,0,.15.12s0,.18-.1.2-.13-.06-.15-.14A.13.13,0,0,1,136.21,72.74Z" transform="translate(0.16 -0.21)"/><path class="cls-2" d="M212.51,34.41c0,.1-.12.18-.25.14a.16.16,0,0,1-.11-.18c0-.1.12-.18.24-.13A.15.15,0,0,1,212.51,34.41Z" transform="translate(0.16 -0.21)"/><path class="cls-2" d="M254.26,146.68c-.07,0-.11,0-.11-.05s0-.17,0-.21a.08.08,0,0,1,.14.08C254.34,146.57,254.28,146.63,254.26,146.68Z" transform="translate(0.16 -0.21)"/><path class="cls-2" d="M165.82,68.21s0,.1-.09.11-.15,0-.14-.1.07-.08.11-.08S165.78,68.18,165.82,68.21Z" transform="translate(0.16 -0.21)"/><path class="cls-2" d="M73.57,33.06c.09,0,.11.1.11.19s-.05.16-.15.12a.17.17,0,0,1-.07-.14C73.45,33.15,73.46,33.07,73.57,33.06Z" transform="translate(0.16 -0.21)"/><path class="cls-2" d="M154,93c.08,0,.18,0,.18.08s-.17.18-.29.21a.11.11,0,0,1-.14-.14C153.83,93.06,153.94,93,154,93Z" transform="translate(0.16 -0.21)"/><path class="cls-2" d="M133.48,123.52s-.06-.06-.06-.15a.15.15,0,0,1,.15-.15.13.13,0,0,1,.14.15C133.69,123.45,133.64,123.5,133.48,123.52Z" transform="translate(0.16 -0.21)"/><path class="cls-2" d="M117.88,124.56c0,.08,0,.18-.09.17s-.06-.09-.05-.13a1.42,1.42,0,0,1,.07-.22A1.34,1.34,0,0,1,117.88,124.56Z" transform="translate(0.16 -0.21)"/><path class="cls-2" d="M137.11,124.94c0,.08-.11.1-.19.11s-.19,0-.15-.13a.26.26,0,0,1,.18-.14C137,124.76,137.11,124.82,137.11,124.94Z" transform="translate(0.16 -0.21)"/><path class="cls-2" d="M274.88,125.47c0,.1-.06.15-.1.12a.45.45,0,0,1-.15-.19.1.1,0,0,1,.15-.11C274.84,125.32,274.85,125.42,274.88,125.47Z" transform="translate(0.16 -0.21)"/><path class="cls-2" d="M199,32a.12.12,0,0,1-.12.16.14.14,0,0,1-.17-.12c0-.07,0-.2.05-.2S198.93,31.88,199,32Z" transform="translate(0.16 -0.21)"/><path class="cls-2" d="M158.88,60.75c0-.09.06-.22.2-.2s.12.1.11.19a.18.18,0,0,1-.15.17A.15.15,0,0,1,158.88,60.75Z" transform="translate(0.16 -0.21)"/><path class="cls-2" d="M18.09,156.69a.12.12,0,0,1,.08.18A.26.26,0,0,1,18,157c-.1,0-.14,0-.12-.13S18,156.71,18.09,156.69Z" transform="translate(0.16 -0.21)"/><path class="cls-2" d="M41.54,91.07c0-.1,0-.19.12-.19s.16.12.15.22-.06.15-.15.11A.53.53,0,0,1,41.54,91.07Z" transform="translate(0.16 -0.21)"/><path class="cls-2" d="M51.45,157.55c0,.07-.05.15-.14.15s-.11-.09-.1-.17a.16.16,0,0,1,.09-.12C51.39,157.38,51.44,157.45,51.45,157.55Z" transform="translate(0.16 -0.21)"/><path class="cls-2" d="M88.6,104.59c0,.12,0,.18-.13.18a.23.23,0,0,1-.21-.21.17.17,0,0,1,.15-.17C88.54,104.39,88.57,104.5,88.6,104.59Z" transform="translate(0.16 -0.21)"/><path class="cls-2" d="M204.37,85s-.12-.1-.11-.15a.22.22,0,0,1,.24-.14.12.12,0,0,1,.13.15C204.61,85,204.53,85,204.37,85Z" transform="translate(0.16 -0.21)"/><path class="cls-2" d="M183.59,89.9a.35.35,0,0,1,0,.47c0,.06-.15,0-.18-.06S183.5,90,183.59,89.9Z" transform="translate(0.16 -0.21)"/><path class="cls-2" d="M212.27,161.25a.2.2,0,0,1-.17-.18c0-.09,0-.15.14-.13s.22,0,.22.15S212.41,161.24,212.27,161.25Z" transform="translate(0.16 -0.21)"/><path class="cls-2" d="M259.9,129.56s-.11,0-.11-.08,0-.15.12-.15.08.08.08.11S259.93,129.52,259.9,129.56Z" transform="translate(0.16 -0.21)"/><path class="cls-2" d="M210.18,81.26c0,.11-.12.19-.23.17s-.08-.11-.06-.18.06-.15.15-.15S210.19,81.15,210.18,81.26Z" transform="translate(0.16 -0.21)"/><path class="cls-2" d="M163.8,100.54c-.1-.06-.18-.13-.13-.26s.11-.19.24-.16a.17.17,0,0,1,.12.25C164,100.46,163.94,100.56,163.8,100.54Z" transform="translate(0.16 -0.21)"/><path class="cls-2" d="M268.05,131.78c.08,0,.06.13,0,.2s-.05.16-.15.09,0-.1,0-.15S267.93,131.77,268.05,131.78Z" transform="translate(0.16 -0.21)"/><path class="cls-2" d="M135.9,100.49a.12.12,0,0,1-.16.11.13.13,0,0,1-.09-.18.13.13,0,0,1,.12-.07C135.85,100.34,135.9,100.41,135.9,100.49Z" transform="translate(0.16 -0.21)"/><path class="cls-2" d="M59.29,189.41c0,.11,0,.16-.14.17a.15.15,0,0,1-.19-.09c0-.1,0-.15.12-.15A.86.86,0,0,1,59.29,189.41Z" transform="translate(0.16 -0.21)"/><path class="cls-2" d="M222.49,101.26c0-.05.1-.18.13-.17s0,.11,0,.18,0,.17-.13.14S222.51,101.32,222.49,101.26Z" transform="translate(0.16 -0.21)"/><path class="cls-2" d="M25.07,135.79c0,.16,0,.28-.2.28s-.16,0-.15-.14a.29.29,0,0,1,.22-.29C25.06,135.62,25.05,135.73,25.07,135.79Z" transform="translate(0.16 -0.21)"/><path class="cls-2" d="M233.07,166a.3.3,0,0,1-.19-.24s.05-.11.08-.11a.15.15,0,0,1,.16.14C233.14,165.91,233.16,166,233.07,166Z" transform="translate(0.16 -0.21)"/><path class="cls-2" d="M2.75,5.24a.19.19,0,0,1,.18.13c0,.1,0,.17-.13.13s-.1-.11-.16-.17Z" transform="translate(0.16 -0.21)"/><path class="cls-2" d="M203.9,12a.15.15,0,0,1-.13-.16.12.12,0,0,1,.14-.15.16.16,0,0,1,.15.16C204.06,11.89,204,11.94,203.9,12Z" transform="translate(0.16 -0.21)"/><path class="cls-2" d="M251,13.24a.13.13,0,0,1,.12.16c0,.06,0,.17-.1.12s-.09-.12-.11-.19S251,13.27,251,13.24Z" transform="translate(0.16 -0.21)"/><path class="cls-2" d="M154.23,111.73s0,.11-.08.12a.13.13,0,0,1-.16-.13s0-.1.08-.11S154.22,111.63,154.23,111.73Z" transform="translate(0.16 -0.21)"/><path class="cls-2" d="M6.27,112.63s-.06-.09,0-.13.08-.12.16-.06a.14.14,0,0,1,0,.14S6.31,112.61,6.27,112.63Z" transform="translate(0.16 -0.21)"/><path class="cls-2" d="M266,112.39a.28.28,0,0,1,.2.21.13.13,0,0,1-.13.16.22.22,0,0,1-.2-.21C265.86,112.47,265.9,112.4,266,112.39Z" transform="translate(0.16 -0.21)"/><path class="cls-2" d="M271.31,113.64c0,.09-.08.15-.17.13a.16.16,0,0,1-.1-.19c0-.08.06-.16.17-.12A.16.16,0,0,1,271.31,113.64Z" transform="translate(0.16 -0.21)"/><path class="cls-2" d="M3.71,114.91c-.08,0-.1-.07-.06-.13a.64.64,0,0,1,.13-.18s.08.06.05.12A1.22,1.22,0,0,1,3.71,114.91Z" transform="translate(0.16 -0.21)"/><path class="cls-2" d="M221.62,116.41c-.05,0-.13,0-.13-.07s0-.15.14-.15.13,0,.14.06S221.71,116.39,221.62,116.41Z" transform="translate(0.16 -0.21)"/><path class="cls-2" d="M261.35,95s-.09.11-.15.12-.12-.06-.11-.14a.14.14,0,0,1,.13-.15C261.3,94.79,261.37,94.83,261.35,95Z" transform="translate(0.16 -0.21)"/><path class="cls-2" d="M170.8,121.08a.94.94,0,0,1-.06-.15c0-.1-.05-.21.08-.28a.08.08,0,0,1,.07,0c.13.1,0,.18,0,.26a1.09,1.09,0,0,0-.08.15Z" transform="translate(0.16 -0.21)"/><path class="cls-2" d="M207.47,62.6c.1,0,.12.09.11.17s-.05.12-.08.12a.13.13,0,0,1-.16-.13A.13.13,0,0,1,207.47,62.6Z" transform="translate(0.16 -0.21)"/><path class="cls-2" d="M275.38,125.73c0,.1-.09.11-.15.14s-.16,0-.16-.09.06-.08.1-.1A.15.15,0,0,1,275.38,125.73Z" transform="translate(0.16 -0.21)"/><path class="cls-2" d="M75.27,57.86s.09.08.09.12a1.52,1.52,0,0,1,0,.21s-.08-.06-.09-.1S75.26,58,75.27,57.86Z" transform="translate(0.16 -0.21)"/><path class="cls-2" d="M63.34,56.53c.11.21.19.43,0,.49s-.12-.16-.13-.27A1.25,1.25,0,0,1,63.34,56.53Z" transform="translate(0.16 -0.21)"/><path class="cls-2" d="M256.79,54s.1,0,.1.08a.19.19,0,0,1-.19.2s-.11,0-.11-.08A.19.19,0,0,1,256.79,54Z" transform="translate(0.16 -0.21)"/><path class="cls-2" d="M38.81,99.73l0,0s0-.05,0-.07a.17.17,0,0,1,0-.07Z" transform="translate(0.16 -0.21)"/><path class="cls-2" d="M204.82,53.05s-.1,0-.1-.07a.19.19,0,0,1,.05-.14c0-.06.1-.05.12,0A.15.15,0,0,1,204.82,53.05Z" transform="translate(0.16 -0.21)"/><path class="cls-2" d="M12.25,129.67s0,.12-.06.13-.15,0-.19-.09,0-.11,0-.12A.16.16,0,0,1,12.25,129.67Z" transform="translate(0.16 -0.21)"/><path class="cls-2" d="M149.21,89.74c.14.29.12.43,0,.54s-.13,0-.14,0C149,90,149.19,90,149.21,89.74Z" transform="translate(0.16 -0.21)"/><path class="cls-2" d="M183,52.45a.15.15,0,0,1-.17.11.12.12,0,0,1-.11-.16s.08-.06.13-.06A.12.12,0,0,1,183,52.45Z" transform="translate(0.16 -0.21)"/><path class="cls-2" d="M277.36,46.4c0,.05-.05.11-.08.13a.14.14,0,0,1-.2-.05.07.07,0,0,1,.06-.11A.89.89,0,0,1,277.36,46.4Z" transform="translate(0.16 -0.21)"/><path class="cls-2" d="M228.86,40.11c0,.11-.06.21-.19.2s-.07-.08-.07-.11.05-.21.18-.21S228.83,40.07,228.86,40.11Z" transform="translate(0.16 -0.21)"/><path class="cls-2" d="M99.44,35.71s-.06.08-.08.12a.53.53,0,0,1-.15-.15c0-.06,0-.12.06-.1A1.09,1.09,0,0,1,99.44,35.71Z" transform="translate(0.16 -0.21)"/><path class="cls-2" d="M210.6,139.09s0,.12,0,.13-.14,0-.17-.09,0-.12,0-.13S210.56,139,210.6,139.09Z" transform="translate(0.16 -0.21)"/><path class="cls-2" d="M249.43,139.22c-.06,0-.12.11-.18.11s-.1-.09-.08-.16a.16.16,0,0,1,.2-.09S249.4,139.16,249.43,139.22Z" transform="translate(0.16 -0.21)"/><path class="cls-2" d="M129.14,84.34s-.07.09-.1.09a.14.14,0,0,1-.15-.15c0-.1,0-.17.13-.13S129.14,84.25,129.14,84.34Z" transform="translate(0.16 -0.21)"/><path class="cls-2" d="M167.53,26.76a.2.2,0,0,1,0-.13,1,1,0,0,1,.13-.17.39.39,0,0,1,0,.15C167.65,26.68,167.63,26.76,167.53,26.76Z" transform="translate(0.16 -0.21)"/><path class="cls-2" d="M51.92,150.54c0,.08,0,.15-.1.16s-.14,0-.14-.14,0-.12.07-.12S51.89,150.45,51.92,150.54Z" transform="translate(0.16 -0.21)"/><path class="cls-2" d="M219.87,154.84c-.23,0-.47.16-.64-.16.29-.22.39.25.63.16Z" transform="translate(0.16 -0.21)"/><path class="cls-2" d="M33,34.22c0,.05-.05.11-.09.12a.07.07,0,0,1-.1-.08.22.22,0,0,1,.09-.12A.08.08,0,0,1,33,34.22Z" transform="translate(0.16 -0.21)"/><path class="cls-2" d="M138.58,24.89a.14.14,0,0,1,.1.18.78.78,0,0,1-.09.21,1,1,0,0,1-.11-.2A.15.15,0,0,1,138.58,24.89Z" transform="translate(0.16 -0.21)"/><path class="cls-2" d="M246.82,24.09a.84.84,0,0,1-.19.08c-.08,0-.15-.08-.09-.15s.14-.05.21-.05S246.84,24,246.82,24.09Z" transform="translate(0.16 -0.21)"/><path class="cls-2" d="M3.76,163.83s-.06.09-.1.09-.08,0,0-.1.06-.1.1-.11S3.79,163.76,3.76,163.83Z" transform="translate(0.16 -0.21)"/><path class="cls-2" d="M45.89,28c0,.11,0,.15-.13.15s-.19,0-.21-.08a.17.17,0,0,1,.17-.21C45.81,27.83,45.86,27.9,45.89,28Z" transform="translate(0.16 -0.21)"/><path class="cls-2" d="M3.78,166.89c0,.08,0,.18-.12.17s-.1-.1-.07-.18.06-.15.16-.13A.61.61,0,0,1,3.78,166.89Z" transform="translate(0.16 -0.21)"/><path class="cls-2" d="M193.68,23c0-.1.13-.18.24-.15s.09.12.07.2-.09.13-.18.11A.15.15,0,0,1,193.68,23Z" transform="translate(0.16 -0.21)"/><path class="cls-2" d="M125.9,168c0,.14-.12.17-.24.14s-.15-.06-.09-.16a.41.41,0,0,1,.2-.12C125.88,167.83,125.89,167.92,125.9,168Z" transform="translate(0.16 -0.21)"/><path class="cls-2" d="M270,170.62c.11,0,.19,0,.19.11s-.06.15-.15.16-.23,0-.2-.16S270,170.65,270,170.62Z" transform="translate(0.16 -0.21)"/><path class="cls-2" d="M194.26,16.69c-.14-.1-.25-.33-.18-.37s.19.1.22.22S194.27,16.63,194.26,16.69Z" transform="translate(0.16 -0.21)"/><path class="cls-2" d="M201.9,171.11c0,.08-.07.14-.16.12s-.05-.08-.05-.12a.13.13,0,0,1,.16-.12S201.89,171.07,201.9,171.11Z" transform="translate(0.16 -0.21)"/><path class="cls-2" d="M139.2,14.48c.08,0,.11,0,.09.09a.3.3,0,0,1-.06.14s-.12,0-.12,0A.72.72,0,0,1,139.2,14.48Z" transform="translate(0.16 -0.21)"/><path class="cls-2" d="M251.42,14.23c0,.09-.06.11-.1,0a.47.47,0,0,1-.12-.18c0-.06.07-.08.11,0A.82.82,0,0,1,251.42,14.23Z" transform="translate(0.16 -0.21)"/><path class="cls-2" d="M214.93,14.11c0,.07,0,.17-.14.13a.32.32,0,0,1-.14-.18c0-.12.07-.13.15-.12S214.93,14,214.93,14.11Z" transform="translate(0.16 -0.21)"/><path class="cls-2" d="M18,175.4H18a.17.17,0,0,1-.06-.06c0-.07,0-.07.07,0A.12.12,0,0,1,18,175.4Z" transform="translate(0.16 -0.21)"/><path class="cls-2" d="M211,78l-.17.12a.39.39,0,0,1-.05-.14c0-.08.06-.14.15-.12S211,77.9,211,78Z" transform="translate(0.16 -0.21)"/><path class="cls-2" d="M169.42,177.17a.14.14,0,0,1,.13-.17c.08,0,.18,0,.2.08s0,.21-.17.22A.15.15,0,0,1,169.42,177.17Z" transform="translate(0.16 -0.21)"/><path class="cls-2" d="M4.57,27.61a1.57,1.57,0,0,1-.12-.21c0-.06,0-.12.06-.12s.12.1.12.18A.42.42,0,0,1,4.57,27.61Z" transform="translate(0.16 -0.21)"/><path class="cls-2" d="M221.06,181.56s-.11-.07-.1-.1a.14.14,0,0,1,.17-.11.08.08,0,0,1,.05.13S221.1,181.54,221.06,181.56Z" transform="translate(0.16 -0.21)"/><path class="cls-2" d="M39.66,85.23a2.53,2.53,0,0,1-.18.27s-.08,0-.08-.08,0-.23.13-.27S39.6,85.19,39.66,85.23Z" transform="translate(0.16 -0.21)"/><path class="cls-2" d="M265.93,32.62s-.1,0-.12,0a.29.29,0,0,1-.05-.14c0-.06.05-.1.1-.06A.16.16,0,0,1,265.93,32.62Z" transform="translate(0.16 -0.21)"/><path class="cls-2" d="M80,183.09a.15.15,0,0,1-.14.15c-.11,0-.22-.05-.19-.18a.22.22,0,0,1,.17-.14C79.88,182.91,79.93,183,80,183.09Z" transform="translate(0.16 -0.21)"/><path class="cls-2" d="M84.42,14c0-.09,0-.16.13-.16a.12.12,0,0,1,.12.15s0,.12-.08.12A.13.13,0,0,1,84.42,14Z" transform="translate(0.16 -0.21)"/><path class="cls-2" d="M134.19,148.81l.23.22c.07.07.09.14,0,.21a.13.13,0,0,1-.07,0c-.13,0-.12-.08-.11-.16a.35.35,0,0,0-.06-.31Z" transform="translate(0.16 -0.21)"/><path class="cls-2" d="M249.91,149.87c0,.11-.07.22-.21.21a.13.13,0,0,1-.12-.16c0-.1,0-.22.13-.25S249.86,149.78,249.91,149.87Z" transform="translate(0.16 -0.21)"/><path class="cls-2" d="M107.68,186.52a.17.17,0,0,1,.19.14.13.13,0,0,1-.1.17c-.1,0-.15,0-.15-.12A.7.7,0,0,1,107.68,186.52Z" transform="translate(0.16 -0.21)"/><path class="cls-2" d="M135,188.1a.08.08,0,0,1,.09.1.25.25,0,0,1-.08.14.07.07,0,0,1-.12,0A.19.19,0,0,1,135,188.1Z" transform="translate(0.16 -0.21)"/><path class="cls-2" d="M172.29,109.75s-.11,0-.13-.07a.12.12,0,0,1,.06-.19c.07,0,.11,0,.13,0A.18.18,0,0,1,172.29,109.75Z" transform="translate(0.16 -0.21)"/><path class="cls-2" d="M267.83,189.54h0v-.14h0C267.82,189.44,267.83,189.49,267.83,189.54Z" transform="translate(0.16 -0.21)"/><path class="cls-2" d="M57.86,137.5a.15.15,0,0,1-.15-.14c0-.09.08-.12.16-.11a.15.15,0,0,1,.11.08A.14.14,0,0,1,57.86,137.5Z" transform="translate(0.16 -0.21)"/></svg>